<mxfile host="Electron" agent="Mozilla/5.0 (Macintosh; Intel Mac OS X 10_15_7) AppleWebKit/537.36 (KHTML, like Gecko) draw.io/24.7.8 Chrome/128.0.6613.36 Electron/32.0.1 Safari/537.36" version="24.7.8">
  <diagram name="Page-1" id="2YBvvXClWsGukQMizWep">
    <mxGraphModel dx="1415" dy="431" grid="1" gridSize="10" guides="1" tooltips="1" connect="1" arrows="1" fold="1" page="1" pageScale="1" pageWidth="850" pageHeight="1100" math="0" shadow="0">
      <root>
        <mxCell id="0" />
        <mxCell id="1" parent="0" />
        <mxCell id="mKCn0pQEpmRzFZVJy1wr-146" value="" style="rounded=0;whiteSpace=wrap;html=1;verticalAlign=top;align=left;" parent="1" vertex="1">
          <mxGeometry x="50" y="330" width="410" height="580" as="geometry" />
        </mxCell>
        <mxCell id="mKCn0pQEpmRzFZVJy1wr-39" value="" style="rounded=0;whiteSpace=wrap;html=1;verticalAlign=top;align=left;" parent="1" vertex="1">
          <mxGeometry x="40" y="320" width="410" height="580" as="geometry" />
        </mxCell>
        <mxCell id="mKCn0pQEpmRzFZVJy1wr-85" style="edgeStyle=orthogonalEdgeStyle;rounded=0;orthogonalLoop=1;jettySize=auto;html=1;entryX=0.5;entryY=0;entryDx=0;entryDy=0;strokeColor=#0066CC;" parent="1" source="mKCn0pQEpmRzFZVJy1wr-2" target="mKCn0pQEpmRzFZVJy1wr-4" edge="1">
          <mxGeometry relative="1" as="geometry" />
        </mxCell>
        <mxCell id="mKCn0pQEpmRzFZVJy1wr-86" value="gRPC/TLS/TCP" style="edgeLabel;html=1;align=center;verticalAlign=middle;resizable=0;points=[];fontColor=#0066CC;" parent="mKCn0pQEpmRzFZVJy1wr-85" vertex="1" connectable="0">
          <mxGeometry x="-0.0048" relative="1" as="geometry">
            <mxPoint y="3" as="offset" />
          </mxGeometry>
        </mxCell>
        <mxCell id="hTff0y7bNb7OE-vSSJrE-20" value="Publish/UnpublishVolume" style="edgeLabel;html=1;align=center;verticalAlign=middle;resizable=0;points=[];" parent="mKCn0pQEpmRzFZVJy1wr-85" vertex="1" connectable="0">
          <mxGeometry x="-0.6417" y="-1" relative="1" as="geometry">
            <mxPoint y="10" as="offset" />
          </mxGeometry>
        </mxCell>
        <mxCell id="mKCn0pQEpmRzFZVJy1wr-94" style="edgeStyle=orthogonalEdgeStyle;rounded=0;orthogonalLoop=1;jettySize=auto;html=1;entryX=1;entryY=0.5;entryDx=0;entryDy=0;labelBackgroundColor=none;labelBorderColor=none;strokeColor=#0066CC;" parent="1" source="mKCn0pQEpmRzFZVJy1wr-2" target="mKCn0pQEpmRzFZVJy1wr-3" edge="1">
          <mxGeometry relative="1" as="geometry" />
        </mxCell>
        <mxCell id="mKCn0pQEpmRzFZVJy1wr-101" value="gRPC/TLS/TCP" style="edgeLabel;html=1;align=center;verticalAlign=middle;resizable=0;points=[];labelBackgroundColor=default;fontColor=#0066CC;" parent="mKCn0pQEpmRzFZVJy1wr-94" vertex="1" connectable="0">
          <mxGeometry relative="1" as="geometry">
            <mxPoint x="10" y="-1" as="offset" />
          </mxGeometry>
        </mxCell>
        <mxCell id="hTff0y7bNb7OE-vSSJrE-22" value="Create/DeleteVolume" style="edgeLabel;html=1;align=center;verticalAlign=middle;resizable=0;points=[];" parent="mKCn0pQEpmRzFZVJy1wr-94" vertex="1" connectable="0">
          <mxGeometry x="0.6314" relative="1" as="geometry">
            <mxPoint x="60" y="-14" as="offset" />
          </mxGeometry>
        </mxCell>
        <mxCell id="mKCn0pQEpmRzFZVJy1wr-2" value="kubelet" style="rounded=0;whiteSpace=wrap;html=1;fontSize=11;fillColor=#fff2cc;strokeColor=#d6b656;" parent="1" vertex="1">
          <mxGeometry x="180" y="340" width="140" height="37" as="geometry" />
        </mxCell>
        <mxCell id="mKCn0pQEpmRzFZVJy1wr-96" style="edgeStyle=orthogonalEdgeStyle;rounded=0;orthogonalLoop=1;jettySize=auto;html=1;exitX=0.5;exitY=1;exitDx=0;exitDy=0;entryX=0.5;entryY=0;entryDx=0;entryDy=0;strokeColor=#0066CC;labelBackgroundColor=none;" parent="1" source="mKCn0pQEpmRzFZVJy1wr-3" target="mKCn0pQEpmRzFZVJy1wr-6" edge="1">
          <mxGeometry relative="1" as="geometry" />
        </mxCell>
        <mxCell id="mKCn0pQEpmRzFZVJy1wr-97" value="gRPC/TLS/TCP" style="edgeLabel;html=1;align=center;verticalAlign=middle;resizable=0;points=[];labelBackgroundColor=default;fontColor=#0066CC;" parent="mKCn0pQEpmRzFZVJy1wr-96" vertex="1" connectable="0">
          <mxGeometry x="0.0296" y="-1" relative="1" as="geometry">
            <mxPoint x="1" y="3" as="offset" />
          </mxGeometry>
        </mxCell>
        <mxCell id="hTff0y7bNb7OE-vSSJrE-23" value="Create/DeleteVolume" style="edgeLabel;html=1;align=center;verticalAlign=middle;resizable=0;points=[];" parent="mKCn0pQEpmRzFZVJy1wr-96" vertex="1" connectable="0">
          <mxGeometry x="-0.3958" relative="1" as="geometry">
            <mxPoint y="4" as="offset" />
          </mxGeometry>
        </mxCell>
        <mxCell id="mKCn0pQEpmRzFZVJy1wr-3" value="nbs-csi-driver-controller" style="rounded=0;whiteSpace=wrap;html=1;fontSize=11;fillColor=#f5f5f5;fontColor=#333333;strokeColor=#666666;" parent="1" vertex="1">
          <mxGeometry x="-120" y="337" width="140" height="40" as="geometry" />
        </mxCell>
        <mxCell id="mKCn0pQEpmRzFZVJy1wr-70" style="edgeStyle=orthogonalEdgeStyle;rounded=0;orthogonalLoop=1;jettySize=auto;html=1;entryX=1;entryY=0.5;entryDx=0;entryDy=0;strokeColor=#0066CC;strokeWidth=1;exitX=1;exitY=0.5;exitDx=0;exitDy=0;" parent="1" source="mKCn0pQEpmRzFZVJy1wr-4" target="mKCn0pQEpmRzFZVJy1wr-66" edge="1">
          <mxGeometry relative="1" as="geometry">
            <mxPoint x="320.55999999999995" y="476.6" as="sourcePoint" />
            <mxPoint x="320" y="779" as="targetPoint" />
            <Array as="points">
              <mxPoint x="380" y="460" />
              <mxPoint x="380" y="760" />
            </Array>
          </mxGeometry>
        </mxCell>
        <mxCell id="mKCn0pQEpmRzFZVJy1wr-79" value="exec" style="edgeLabel;html=1;align=center;verticalAlign=middle;resizable=0;points=[];fontColor=#0066CC;" parent="mKCn0pQEpmRzFZVJy1wr-70" vertex="1" connectable="0">
          <mxGeometry x="-0.4868" relative="1" as="geometry">
            <mxPoint y="22" as="offset" />
          </mxGeometry>
        </mxCell>
        <mxCell id="hTff0y7bNb7OE-vSSJrE-25" value="mkfs/mount/unmount" style="edgeLabel;html=1;align=center;verticalAlign=middle;resizable=0;points=[];" parent="mKCn0pQEpmRzFZVJy1wr-70" vertex="1" connectable="0">
          <mxGeometry x="0.3065" relative="1" as="geometry">
            <mxPoint y="-157" as="offset" />
          </mxGeometry>
        </mxCell>
        <mxCell id="mKCn0pQEpmRzFZVJy1wr-80" style="edgeStyle=orthogonalEdgeStyle;rounded=0;orthogonalLoop=1;jettySize=auto;html=1;entryX=0.5;entryY=0;entryDx=0;entryDy=0;strokeColor=#0066CC;strokeWidth=1;exitX=0.5;exitY=1;exitDx=0;exitDy=0;" parent="1" source="mKCn0pQEpmRzFZVJy1wr-4" target="mKCn0pQEpmRzFZVJy1wr-47" edge="1">
          <mxGeometry relative="1" as="geometry" />
        </mxCell>
        <mxCell id="mKCn0pQEpmRzFZVJy1wr-81" value="gRPC/TLS/unix" style="edgeLabel;html=1;align=center;verticalAlign=middle;resizable=0;points=[];fontColor=#0066CC;" parent="mKCn0pQEpmRzFZVJy1wr-80" vertex="1" connectable="0">
          <mxGeometry x="-0.0041" relative="1" as="geometry">
            <mxPoint y="2" as="offset" />
          </mxGeometry>
        </mxCell>
        <mxCell id="hTff0y7bNb7OE-vSSJrE-32" value="Start/StopEndpoint" style="edgeLabel;html=1;align=center;verticalAlign=middle;resizable=0;points=[];" parent="mKCn0pQEpmRzFZVJy1wr-80" vertex="1" connectable="0">
          <mxGeometry x="0.4875" relative="1" as="geometry">
            <mxPoint y="-26" as="offset" />
          </mxGeometry>
        </mxCell>
        <mxCell id="mKCn0pQEpmRzFZVJy1wr-4" value="nbs-csi-driver-node" style="rounded=0;whiteSpace=wrap;html=1;fontSize=11;fillColor=#f5f5f5;fontColor=#333333;strokeColor=#666666;" parent="1" vertex="1">
          <mxGeometry x="180" y="440" width="140" height="40" as="geometry" />
        </mxCell>
        <mxCell id="mKCn0pQEpmRzFZVJy1wr-115" style="edgeStyle=orthogonalEdgeStyle;rounded=0;orthogonalLoop=1;jettySize=auto;html=1;entryX=0.5;entryY=0;entryDx=0;entryDy=0;strokeColor=#0066CC;exitX=0.5;exitY=1;exitDx=0;exitDy=0;" parent="1" source="mKCn0pQEpmRzFZVJy1wr-6" target="mKCn0pQEpmRzFZVJy1wr-110" edge="1">
          <mxGeometry relative="1" as="geometry" />
        </mxCell>
        <mxCell id="mKCn0pQEpmRzFZVJy1wr-116" value="IC/TCP" style="edgeLabel;html=1;align=center;verticalAlign=middle;resizable=0;points=[];fontColor=#0066CC;" parent="mKCn0pQEpmRzFZVJy1wr-115" vertex="1" connectable="0">
          <mxGeometry x="0.3028" y="2" relative="1" as="geometry">
            <mxPoint x="-2" y="-5" as="offset" />
          </mxGeometry>
        </mxCell>
        <mxCell id="hTff0y7bNb7OE-vSSJrE-24" value="ModifyScheme" style="edgeLabel;html=1;align=center;verticalAlign=middle;resizable=0;points=[];" parent="mKCn0pQEpmRzFZVJy1wr-115" vertex="1" connectable="0">
          <mxGeometry x="-0.4042" y="-1" relative="1" as="geometry">
            <mxPoint y="3" as="offset" />
          </mxGeometry>
        </mxCell>
        <mxCell id="mKCn0pQEpmRzFZVJy1wr-6" value="nbs-server-node" style="rounded=0;whiteSpace=wrap;html=1;fontSize=11;fillColor=#f5f5f5;fontColor=#333333;strokeColor=#666666;" parent="1" vertex="1">
          <mxGeometry x="-120" y="440" width="140" height="40" as="geometry" />
        </mxCell>
        <mxCell id="mKCn0pQEpmRzFZVJy1wr-60" style="edgeStyle=orthogonalEdgeStyle;rounded=0;orthogonalLoop=1;jettySize=auto;html=1;entryX=0.147;entryY=1.005;entryDx=0;entryDy=0;exitX=0.147;exitY=-0.001;exitDx=0;exitDy=0;startArrow=none;startFill=0;strokeColor=#CC0066;strokeWidth=1;entryPerimeter=0;exitPerimeter=0;" parent="1" source="mKCn0pQEpmRzFZVJy1wr-7" target="mKCn0pQEpmRzFZVJy1wr-47" edge="1">
          <mxGeometry relative="1" as="geometry">
            <Array as="points" />
          </mxGeometry>
        </mxCell>
        <mxCell id="mKCn0pQEpmRzFZVJy1wr-62" value="NBD/unix" style="edgeLabel;html=1;align=center;verticalAlign=middle;resizable=0;points=[];fontColor=#CC0066;" parent="mKCn0pQEpmRzFZVJy1wr-60" vertex="1" connectable="0">
          <mxGeometry x="-0.0086" y="1" relative="1" as="geometry">
            <mxPoint x="1" y="5" as="offset" />
          </mxGeometry>
        </mxCell>
        <mxCell id="hTff0y7bNb7OE-vSSJrE-11" value="Read/Write" style="edgeLabel;html=1;align=center;verticalAlign=middle;resizable=0;points=[];" parent="mKCn0pQEpmRzFZVJy1wr-60" vertex="1" connectable="0">
          <mxGeometry x="0.1383" y="1" relative="1" as="geometry">
            <mxPoint x="1" y="-3" as="offset" />
          </mxGeometry>
        </mxCell>
        <mxCell id="mKCn0pQEpmRzFZVJy1wr-67" style="edgeStyle=orthogonalEdgeStyle;rounded=0;orthogonalLoop=1;jettySize=auto;html=1;entryX=0.854;entryY=-0.002;entryDx=0;entryDy=0;exitX=0.851;exitY=0.998;exitDx=0;exitDy=0;strokeWidth=1;strokeColor=#0066CC;exitPerimeter=0;entryPerimeter=0;" parent="1" source="mKCn0pQEpmRzFZVJy1wr-7" target="mKCn0pQEpmRzFZVJy1wr-66" edge="1">
          <mxGeometry relative="1" as="geometry">
            <Array as="points">
              <mxPoint x="300" y="680" />
            </Array>
          </mxGeometry>
        </mxCell>
        <mxCell id="mKCn0pQEpmRzFZVJy1wr-68" value="Netlink" style="edgeLabel;html=1;align=center;verticalAlign=middle;resizable=0;points=[];fontColor=#0066CC;" parent="mKCn0pQEpmRzFZVJy1wr-67" vertex="1" connectable="0">
          <mxGeometry x="-0.0263" relative="1" as="geometry">
            <mxPoint x="-1" y="7" as="offset" />
          </mxGeometry>
        </mxCell>
        <mxCell id="hTff0y7bNb7OE-vSSJrE-13" value="Connect/Disconnect" style="edgeLabel;html=1;align=center;verticalAlign=middle;resizable=0;points=[];" parent="mKCn0pQEpmRzFZVJy1wr-67" vertex="1" connectable="0">
          <mxGeometry x="-0.5" relative="1" as="geometry">
            <mxPoint y="8" as="offset" />
          </mxGeometry>
        </mxCell>
        <mxCell id="mKCn0pQEpmRzFZVJy1wr-7" value="nbs-endpoint-proxy-node" style="rounded=0;whiteSpace=wrap;html=1;fontSize=11;fillColor=#f5f5f5;fontColor=#333333;strokeColor=#666666;" parent="1" vertex="1">
          <mxGeometry x="180" y="640" width="140" height="40" as="geometry" />
        </mxCell>
        <mxCell id="mKCn0pQEpmRzFZVJy1wr-77" style="edgeStyle=orthogonalEdgeStyle;rounded=0;orthogonalLoop=1;jettySize=auto;html=1;entryX=0.5;entryY=1;entryDx=0;entryDy=0;fillColor=#cce5ff;strokeColor=#CC0066;strokeWidth=1;exitX=0.5;exitY=0;exitDx=0;exitDy=0;" parent="1" source="mKCn0pQEpmRzFZVJy1wr-23" target="mKCn0pQEpmRzFZVJy1wr-66" edge="1">
          <mxGeometry relative="1" as="geometry">
            <mxPoint x="250" y="841" as="sourcePoint" />
            <mxPoint x="250" y="781" as="targetPoint" />
          </mxGeometry>
        </mxCell>
        <mxCell id="mKCn0pQEpmRzFZVJy1wr-89" value="fs" style="edgeLabel;html=1;align=center;verticalAlign=middle;resizable=0;points=[];fontColor=#CC0066;" parent="mKCn0pQEpmRzFZVJy1wr-77" vertex="1" connectable="0">
          <mxGeometry x="-0.0083" relative="1" as="geometry">
            <mxPoint y="8" as="offset" />
          </mxGeometry>
        </mxCell>
        <mxCell id="hTff0y7bNb7OE-vSSJrE-15" value="Read/Write" style="edgeLabel;html=1;align=center;verticalAlign=middle;resizable=0;points=[];" parent="mKCn0pQEpmRzFZVJy1wr-77" vertex="1" connectable="0">
          <mxGeometry x="0.3842" y="1" relative="1" as="geometry">
            <mxPoint x="1" y="7" as="offset" />
          </mxGeometry>
        </mxCell>
        <mxCell id="mKCn0pQEpmRzFZVJy1wr-23" value="user-pod" style="rounded=0;whiteSpace=wrap;html=1;fontSize=11;fillColor=#f5f5f5;fontColor=#333333;strokeColor=#666666;" parent="1" vertex="1">
          <mxGeometry x="180" y="840" width="140" height="40" as="geometry" />
        </mxCell>
        <mxCell id="mKCn0pQEpmRzFZVJy1wr-53" style="edgeStyle=orthogonalEdgeStyle;rounded=0;orthogonalLoop=1;jettySize=auto;html=1;exitX=0.854;exitY=0.999;exitDx=0;exitDy=0;strokeColor=#0066CC;strokeWidth=1;entryX=0.854;entryY=-0.006;entryDx=0;entryDy=0;exitPerimeter=0;entryPerimeter=0;" parent="1" source="mKCn0pQEpmRzFZVJy1wr-47" target="mKCn0pQEpmRzFZVJy1wr-7" edge="1">
          <mxGeometry relative="1" as="geometry">
            <mxPoint x="263" y="660" as="targetPoint" />
          </mxGeometry>
        </mxCell>
        <mxCell id="mKCn0pQEpmRzFZVJy1wr-58" value="gRPC/unix" style="edgeLabel;html=1;align=center;verticalAlign=middle;resizable=0;points=[];fontColor=#0066CC;" parent="mKCn0pQEpmRzFZVJy1wr-53" vertex="1" connectable="0">
          <mxGeometry x="-0.0019" y="1" relative="1" as="geometry">
            <mxPoint x="-1" y="6" as="offset" />
          </mxGeometry>
        </mxCell>
        <mxCell id="hTff0y7bNb7OE-vSSJrE-18" value="Start/StopProxyEndpoint" style="edgeLabel;html=1;align=center;verticalAlign=middle;resizable=0;points=[];" parent="mKCn0pQEpmRzFZVJy1wr-53" vertex="1" connectable="0">
          <mxGeometry x="-0.265" relative="1" as="geometry">
            <mxPoint y="1" as="offset" />
          </mxGeometry>
        </mxCell>
        <mxCell id="mKCn0pQEpmRzFZVJy1wr-111" style="edgeStyle=orthogonalEdgeStyle;rounded=0;orthogonalLoop=1;jettySize=auto;html=1;entryX=1;entryY=0.5;entryDx=0;entryDy=0;strokeColor=#CC0066;startArrow=none;startFill=0;exitX=0;exitY=0.5;exitDx=0;exitDy=0;" parent="1" source="mKCn0pQEpmRzFZVJy1wr-47" target="mKCn0pQEpmRzFZVJy1wr-110" edge="1">
          <mxGeometry relative="1" as="geometry">
            <mxPoint x="180" y="559.8" as="sourcePoint" />
            <mxPoint x="50" y="559.8" as="targetPoint" />
            <Array as="points" />
          </mxGeometry>
        </mxCell>
        <mxCell id="mKCn0pQEpmRzFZVJy1wr-112" value="IC/TCP" style="edgeLabel;html=1;align=center;verticalAlign=middle;resizable=0;points=[];fontColor=#CC0066;" parent="mKCn0pQEpmRzFZVJy1wr-111" vertex="1" connectable="0">
          <mxGeometry x="0.0109" y="-1" relative="1" as="geometry">
            <mxPoint x="11" y="1" as="offset" />
          </mxGeometry>
        </mxCell>
        <mxCell id="hTff0y7bNb7OE-vSSJrE-27" value="Get/Put" style="edgeLabel;html=1;align=center;verticalAlign=middle;resizable=0;points=[];" parent="mKCn0pQEpmRzFZVJy1wr-111" vertex="1" connectable="0">
          <mxGeometry x="0.3932" y="-2" relative="1" as="geometry">
            <mxPoint x="41" y="-11" as="offset" />
          </mxGeometry>
        </mxCell>
        <mxCell id="hTff0y7bNb7OE-vSSJrE-3" style="edgeStyle=orthogonalEdgeStyle;rounded=0;orthogonalLoop=1;jettySize=auto;html=1;exitX=0;exitY=0.75;exitDx=0;exitDy=0;entryX=1;entryY=0.5;entryDx=0;entryDy=0;fontColor=#CC0066;strokeColor=#CC0066;" parent="1" source="mKCn0pQEpmRzFZVJy1wr-47" target="_0tyfMGEkezi1Wn5K47d-5" edge="1">
          <mxGeometry relative="1" as="geometry">
            <mxPoint x="180.00000000000023" y="541" as="sourcePoint" />
            <mxPoint x="20.000000000000227" y="631" as="targetPoint" />
            <Array as="points">
              <mxPoint x="110" y="570" />
              <mxPoint x="110" y="660" />
            </Array>
          </mxGeometry>
        </mxCell>
        <mxCell id="hTff0y7bNb7OE-vSSJrE-4" value="IC/TCP" style="edgeLabel;html=1;align=center;verticalAlign=middle;resizable=0;points=[];fontColor=#CC0066;" parent="hTff0y7bNb7OE-vSSJrE-3" vertex="1" connectable="0">
          <mxGeometry x="0.1053" y="-1" relative="1" as="geometry">
            <mxPoint y="22" as="offset" />
          </mxGeometry>
        </mxCell>
        <mxCell id="hTff0y7bNb7OE-vSSJrE-28" value="Read/WriteDevice" style="edgeLabel;html=1;align=center;verticalAlign=middle;resizable=0;points=[];" parent="hTff0y7bNb7OE-vSSJrE-3" vertex="1" connectable="0">
          <mxGeometry x="-0.3939" relative="1" as="geometry">
            <mxPoint y="72" as="offset" />
          </mxGeometry>
        </mxCell>
        <mxCell id="mKCn0pQEpmRzFZVJy1wr-47" value="nbs-server-node" style="rounded=0;whiteSpace=wrap;html=1;fontSize=11;fillColor=#f5f5f5;fontColor=#333333;strokeColor=#666666;" parent="1" vertex="1">
          <mxGeometry x="180" y="540" width="140" height="40" as="geometry" />
        </mxCell>
        <mxCell id="mKCn0pQEpmRzFZVJy1wr-73" style="edgeStyle=orthogonalEdgeStyle;rounded=0;orthogonalLoop=1;jettySize=auto;html=1;entryX=0.146;entryY=0.998;entryDx=0;entryDy=0;exitX=0.146;exitY=0.002;exitDx=0;exitDy=0;startArrow=none;startFill=0;fillColor=#cce5ff;strokeColor=#CC0066;strokeWidth=1;entryPerimeter=0;exitPerimeter=0;" parent="1" source="mKCn0pQEpmRzFZVJy1wr-66" target="mKCn0pQEpmRzFZVJy1wr-7" edge="1">
          <mxGeometry relative="1" as="geometry">
            <mxPoint x="207.8599999999999" y="739.76" as="sourcePoint" />
            <mxPoint x="207.8599999999999" y="679.88" as="targetPoint" />
          </mxGeometry>
        </mxCell>
        <mxCell id="mKCn0pQEpmRzFZVJy1wr-75" value="NBD/unix" style="edgeLabel;html=1;align=center;verticalAlign=middle;resizable=0;points=[];fontColor=#CC0066;" parent="mKCn0pQEpmRzFZVJy1wr-73" vertex="1" connectable="0">
          <mxGeometry x="0.0099" y="-1" relative="1" as="geometry">
            <mxPoint y="6" as="offset" />
          </mxGeometry>
        </mxCell>
        <mxCell id="hTff0y7bNb7OE-vSSJrE-14" value="Read/Write" style="edgeLabel;html=1;align=center;verticalAlign=middle;resizable=0;points=[];" parent="mKCn0pQEpmRzFZVJy1wr-73" vertex="1" connectable="0">
          <mxGeometry x="0.2098" relative="1" as="geometry">
            <mxPoint x="1" y="-1" as="offset" />
          </mxGeometry>
        </mxCell>
        <mxCell id="mKCn0pQEpmRzFZVJy1wr-66" value="kernel" style="rounded=0;whiteSpace=wrap;html=1;fontSize=11;fillColor=#f5f5f5;fontColor=#333333;strokeColor=#666666;" parent="1" vertex="1">
          <mxGeometry x="180" y="740" width="140" height="40" as="geometry" />
        </mxCell>
        <mxCell id="mKCn0pQEpmRzFZVJy1wr-110" value="YDB" style="rounded=0;whiteSpace=wrap;html=1;fontSize=11;fillColor=#f5f5f5;fontColor=#333333;strokeColor=#666666;" parent="1" vertex="1">
          <mxGeometry x="-120" y="540" width="140" height="40" as="geometry" />
        </mxCell>
        <mxCell id="_0tyfMGEkezi1Wn5K47d-5" value="nbs-disk-agent-node" style="rounded=0;whiteSpace=wrap;html=1;fontSize=11;fillColor=#f5f5f5;fontColor=#333333;strokeColor=#666666;" parent="1" vertex="1">
          <mxGeometry x="-120" y="640" width="140" height="40" as="geometry" />
        </mxCell>
        <mxCell id="g-hft4BB2vOTsgDrdtdM-1" value="pod node" style="rounded=0;whiteSpace=wrap;html=1;" vertex="1" parent="1">
          <mxGeometry x="380" y="320" width="70" height="20" as="geometry" />
        </mxCell>
      </root>
    </mxGraphModel>
  </diagram>
</mxfile>
